<svg width="20" height="20" viewBox="0 0 20 20" fill="none" xmlns="http://www.w3.org/2000/svg">
<path d="M9.99139 20C15.5039 20 20 15.5211 20 9.99139C20 4.46167 15.5211 0 9.99139 0C4.46167 0 0 4.4789 0 9.99139C0 15.5039 4.4789 20 9.99139 20ZM9.99139 1.39535C14.7287 1.39535 18.5874 5.25409 18.5874 9.99139C18.5874 14.7287 14.7287 18.5874 9.99139 18.5874C5.25409 18.5874 1.39535 14.7287 1.39535 9.99139C1.39535 5.25409 5.25409 1.39535 9.99139 1.39535Z" fill="#FD275F"/>
<path d="M10.9373 14.9877C11.0751 15.1256 11.2473 15.1945 11.4368 15.1945C11.6091 15.1945 11.7986 15.1256 11.9364 14.9877C12.212 14.7121 12.212 14.2642 11.9364 13.9886L7.88817 9.94037L11.9364 5.89214C12.212 5.61651 12.212 5.16862 11.9364 4.893C11.6608 4.61737 11.2129 4.61737 10.9373 4.893L6.38946 9.4408C6.25164 9.57861 6.18274 9.75088 6.18274 9.94037C6.18274 10.1299 6.25164 10.3021 6.38946 10.4399L10.9373 14.9877Z" fill="#FD275F"/>
</svg>
