<svg width="20" height="20" viewBox="0 0 20 20" fill="none" xmlns="http://www.w3.org/2000/svg">
<path d="M10.0086 0C4.49612 0 0 4.4789 0 10.0086C0 15.5383 4.4789 20 10.0086 20C15.5383 20 20 15.5211 20 10.0086C20 4.49612 15.5211 0 10.0086 0ZM10.0086 18.6047C5.27132 18.6047 1.41257 14.7459 1.41257 10.0086C1.41257 5.27132 5.27132 1.41257 10.0086 1.41257C14.7459 1.41257 18.6047 5.27132 18.6047 10.0086C18.6047 14.7459 14.7459 18.6047 10.0086 18.6047Z" fill="#FD275F"/>
<path d="M9.06188 5.01274C8.92407 4.87493 8.75181 4.80603 8.56231 4.80603C8.39005 4.80603 8.20056 4.87493 8.06275 5.01274C7.78712 5.28837 7.78712 5.73626 8.06275 6.01188L12.111 10.0601L8.06275 14.1084C7.78712 14.384 7.78712 14.8319 8.06275 15.1075C8.33837 15.3831 8.78626 15.3831 9.06188 15.1075L13.6097 10.5597C13.7475 10.4219 13.8164 10.2496 13.8164 10.0601C13.8164 9.87063 13.7475 9.69836 13.6097 9.56055L9.06188 5.01274Z" fill="#FD275F"/>
</svg>
