<svg width="20" height="20" viewBox="0 0 20 20" fill="none" xmlns="http://www.w3.org/2000/svg">
<circle cx="10" cy="10" r="10" fill="#FD275F"/>
<path d="M7.28571 10.8571H6.85714C5.91027 10.8571 5.14286 11.6259 5.14286 12.5746V14.2825C5.14286 15.231 5.91027 16 6.85714 16H7.28571C7.75902 16 8.14286 15.6154 8.14286 15.1413V11.7159C8.14286 11.2415 7.75902 10.8571 7.28571 10.8571ZM12.8571 10.8571H12.4286C11.9553 10.8571 11.5714 11.2415 11.5714 11.7159V15.1413C11.5714 15.6154 11.9553 16 12.4286 16H12.8571C13.804 16 14.5714 15.231 14.5714 14.2825V12.5746C14.5714 11.6262 13.804 10.8571 12.8571 10.8571ZM9.85714 4C6.02438 4 3.12241 7.19098 3 10.8571V13.8571C3 14.0939 3.19179 14.2857 3.42857 14.2857H3.85714C4.09393 14.2857 4.28571 14.0939 4.28571 13.8571V10.8571C4.28571 7.78562 6.78562 5.29107 9.85714 5.29054C12.9287 5.29107 15.4286 7.78562 15.4286 10.8571V13.8571C15.4286 14.0939 15.6204 14.2857 15.8571 14.2857H16.2857C16.5225 14.2857 16.7143 14.0939 16.7143 13.8571V10.8571C16.5919 7.19098 13.6899 4 9.85714 4Z" fill="white"/>
</svg>
