<svg width="35" height="20" viewBox="0 0 35 20" fill="none" xmlns="http://www.w3.org/2000/svg">
<path d="M33.5862 8.83524H1.41381C0.633008 8.83524 0 9.35669 0 10C0 10.6433 0.633008 11.1648 1.41381 11.1648H33.5862C34.3671 11.1648 35 10.6433 35 10C35 9.35675 34.3671 8.83524 33.5862 8.83524Z" fill="white"/>
<path d="M33.5862 0H1.41381C0.633008 0 0 0.521511 0 1.16478C0 1.80805 0.633008 2.32957 1.41381 2.32957H33.5862C34.3671 2.32957 35 1.80805 35 1.16478C35 0.521511 34.3671 0 33.5862 0Z" fill="white"/>
<path d="M33.5862 17.6704H1.41381C0.633008 17.6704 0 18.1919 0 18.8352C0 19.4786 0.633008 20 1.41381 20H33.5862C34.3671 20 35 19.4786 35 18.8352C35 18.1919 34.3671 17.6704 33.5862 17.6704Z" fill="white"/>
</svg>
