<svg width="40" height="38" viewBox="0 0 40 38" fill="none" xmlns="http://www.w3.org/2000/svg">
<path d="M36.048 0.689977L13.2867 0.643311C11.1067 0.643311 9.33333 2.41664 9.33333 4.59664V8.01264L3.95333 8.02398C1.77333 8.02398 0 9.79731 0 11.9773V26.0713C0 28.2513 1.77333 30.024 3.95333 30.024H8V36.6906C8 36.966 8.16933 37.2133 8.42667 37.3126C8.50467 37.3426 8.586 37.3573 8.66667 37.3573C8.85067 37.3573 9.03133 37.2806 9.16 37.1393L15.6293 30.0226L26.7133 29.9773C28.8933 29.9773 30.6667 28.204 30.6667 26.0246V25.9493L34.1733 29.8066C34.302 29.948 34.4827 30.0246 34.6667 30.0246C34.7473 30.0246 34.8287 30.01 34.9067 29.98C35.164 29.8806 35.3333 29.6333 35.3333 29.358V22.6913H36.0467C38.2267 22.6913 40 20.918 40 18.7386V4.64331C40 2.46398 38.2273 0.690644 36.048 0.689977ZM29.3333 26.024C29.3333 27.4686 28.158 28.6433 26.7107 28.6433L15.3307 28.69C15.144 28.6906 14.9653 28.77 14.84 28.908L9.33333 34.966V29.3566C9.33333 28.9886 9.03533 28.69 8.66667 28.69H3.95333C2.50867 28.69 1.33333 27.5146 1.33333 26.0706V11.9766C1.33333 10.532 2.50867 9.35664 3.95467 9.35664L10 9.34398C10.0007 9.34398 10.0007 9.34398 10.0013 9.34398L26.7133 9.30931C28.158 9.30931 29.3333 10.4846 29.3333 11.9293V24.2233V26.024ZM38.6667 18.7373C38.6667 20.182 37.4913 21.3566 36.0467 21.3566H34.6667C34.298 21.3566 34 21.6553 34 22.0233V27.6326L30.6667 23.966V11.93C30.6667 9.74998 28.8933 7.97664 26.712 7.97664L10.6667 8.00931V4.59598C10.6667 3.15131 11.842 1.97598 13.2853 1.97598L36.046 2.02264C36.0467 2.02264 36.0467 2.02264 36.0473 2.02264C37.492 2.02264 38.6673 3.19798 38.6673 4.64264V18.7373H38.6667Z" fill="#53C7F0"/>
</svg>
