<svg width="92" height="80" viewBox="0 0 92 80" fill="none" xmlns="http://www.w3.org/2000/svg">
<path d="M32.011 37.8075C32.9643 36.9667 33.9268 36.1397 34.8862 35.3111C35.0248 42.2906 35.5053 49.4255 35.5315 49.7228L50.8302 49.8167C50.5869 47.1478 50.0571 34.98 50.2588 28.8214C50.4513 28.6474 50.6408 28.458 50.8148 28.2316C55.8414 21.7157 59.4528 14.3251 61.7382 6.42631C63.172 1.47049 55.6582 -1.42169 54.2152 3.56185C52.5196 9.41859 50.1156 14.8657 46.8323 19.9047C45.8081 19.2471 44.6146 18.8236 43.3164 18.7173C39.8652 18.4386 36.7666 20.4822 35.5531 23.5391C35.3729 23.6885 35.1943 23.841 35.0248 24.0366C34.9401 24.1336 34.8462 24.2198 34.7615 24.3153C34.7507 20.1788 28.1255 18.7604 26.855 23.3436C25.8971 26.7917 25.7785 30.3707 25.2841 33.8958C24.7344 37.8137 28.7846 40.6535 32.011 37.8075Z" fill="#53C7F0"/>
<path d="M28.2548 14.8166V14.8859C28.2548 15.8423 29.0295 16.6169 29.9858 16.6169C30.9206 16.6169 31.6768 15.8762 31.7107 14.9506C32.7148 16.948 34.6383 18.4465 37.0192 18.8007C40.1362 19.2658 43.0792 17.6272 44.419 14.9568C44.4575 15.8793 45.2137 16.6185 46.1454 16.6185C47.1002 16.6185 47.8764 15.8438 47.8764 14.8875V14.8182C48.5001 14.8182 49.0068 14.3131 49.0068 13.6893V9.16473C49.0068 8.54255 48.5001 8.03588 47.8764 8.03588V7.96658C47.8764 7.31207 47.5068 6.74688 46.9708 6.45427C45.7403 2.71045 42.2152 0 38.0664 0C33.916 0 30.3939 2.71045 29.1619 6.45427C28.6244 6.74688 28.2579 7.31207 28.2579 7.96658V8.03588C27.6342 8.03588 27.126 8.54409 27.126 9.16473V13.6893C27.1229 14.3084 27.6296 14.8166 28.2548 14.8166ZM38.0633 1.72638C41.2773 1.72638 44.0294 3.7238 45.1582 6.53897C44.707 6.8516 44.4098 7.37213 44.4098 7.96196V8.56411C43.4026 6.57285 41.4837 5.0821 39.1105 4.72944C35.9966 4.26435 33.0582 5.89832 31.7153 8.56411V7.96196C31.7153 7.37213 31.4196 6.8516 30.9684 6.53897C32.0972 3.7238 34.8492 1.72638 38.0633 1.72638Z" fill="#53C7F0"/>
<path d="M91.1714 52.4287H0V79.9999H91.1714V52.4287Z" fill="#53C7F0"/>
<path d="M28.7093 47.1062H7.50464V50.9178H28.7093V47.1062Z" fill="#53C7F0"/>
<path d="M81.8266 47.1062H60.6204V50.9178H81.8266V47.1062Z" fill="#53C7F0"/>
</svg>
