<svg width="20" height="20" viewBox="0 0 20 20" fill="none" xmlns="http://www.w3.org/2000/svg">
<circle cx="10" cy="10" r="10" fill="#FD275F"/>
<path d="M13.053 6.36872L12.3749 5.89927C12.2842 5.83653 12.1598 5.85914 12.097 5.94979C12.0343 6.04047 12.0569 6.16485 12.1476 6.22764L12.8256 6.69709C12.9154 6.75926 13.0413 6.73627 13.1035 6.6466C13.1662 6.55587 13.1436 6.43149 13.053 6.36872Z" fill="white"/>
<path d="M14.4092 7.30757L13.7311 6.83814C13.6405 6.77536 13.5161 6.79798 13.4533 6.88864C13.3905 6.97932 13.4131 7.1037 13.5038 7.16649C13.5038 7.16649 14.1805 7.63498 14.1818 7.63591C14.2682 7.69571 14.3966 7.67655 14.4597 7.58542C14.5225 7.49476 14.4999 7.37036 14.4092 7.30757Z" fill="white"/>
<path d="M7.99478 7.0931L7.19189 6.90468C7.08456 6.87952 6.97709 6.94609 6.95186 7.05346C6.92667 7.16084 6.99328 7.26829 7.10064 7.2935L7.90352 7.48191C7.91888 7.4855 7.93419 7.48725 7.94935 7.48725C8.03994 7.48725 8.12196 7.42513 8.14358 7.33313C8.16874 7.22573 8.10213 7.11826 7.99478 7.0931Z" fill="white"/>
<path d="M9.60049 7.46993L8.7976 7.28152C8.69025 7.25635 8.5828 7.32292 8.55757 7.4303C8.53238 7.53767 8.599 7.64512 8.70635 7.67031L9.50924 7.85872C9.52459 7.86231 9.5399 7.86406 9.55507 7.86406C9.64565 7.86406 9.72767 7.80196 9.74929 7.70996C9.77446 7.60257 9.70784 7.49512 9.60049 7.46993Z" fill="white"/>
<path d="M9.91369 8.41601L8.09448 7.98911C7.98715 7.96395 7.87968 8.03052 7.85444 8.13789C7.82926 8.24527 7.89587 8.35272 8.00322 8.3779L9.62804 8.75918L8.31715 14.3457L5.28277 13.6337L6.59364 8.04714L7.21134 8.19207C7.31871 8.21726 7.42614 8.15064 7.45135 8.04329C7.47656 7.93594 7.40992 7.82847 7.30255 7.80328L6.49047 7.61274C6.38336 7.58757 6.2757 7.65414 6.25046 7.76152L4.84834 13.7368C4.82315 13.8442 4.88977 13.9516 4.99712 13.9768L8.42026 14.7801C8.43533 14.7836 8.45067 14.7854 8.4659 14.7854C8.50279 14.7854 8.53924 14.7751 8.5711 14.7554C8.61612 14.7275 8.64819 14.6829 8.66032 14.6313L10.0625 8.65602C10.0876 8.54864 10.021 8.4412 9.91369 8.41601Z" fill="white"/>
<path d="M8.88931 10.6688C8.8558 10.589 8.77483 10.54 8.68852 10.5472L7.94144 10.6099L7.65101 9.91872C7.61752 9.83894 7.53634 9.78986 7.45023 9.79711C7.36405 9.80433 7.29226 9.86626 7.2725 9.95048L7.10124 10.6803L6.35416 10.743C6.26797 10.7502 6.19619 10.8122 6.17643 10.8964C6.15668 10.9806 6.19339 11.068 6.26738 11.1128L6.90859 11.5012L6.73733 12.2311C6.71757 12.3153 6.75429 12.4027 6.82827 12.4475C6.86025 12.4668 6.89606 12.4763 6.93167 12.4763C6.97851 12.4763 7.02501 12.4599 7.06218 12.4278L7.62972 11.938L8.27096 12.3265C8.3449 12.3713 8.43935 12.3634 8.50487 12.3069C8.57036 12.2503 8.59199 12.1581 8.5585 12.0784L8.26807 11.3872L8.83563 10.8974C8.90122 10.8408 8.92282 10.7486 8.88931 10.6688ZM7.84375 11.4081L7.95233 11.6665C7.95233 11.6665 7.71265 11.5213 7.7126 11.5213C7.54677 11.4208 7.38022 11.6259 7.26657 11.724L7.33058 11.4512C7.35034 11.367 7.31362 11.2796 7.23964 11.2348L6.99996 11.0896C6.99996 11.0896 7.27882 11.0662 7.2792 11.0662C7.47307 11.0499 7.48673 10.7857 7.52091 10.64C7.52091 10.64 7.62922 10.8977 7.62946 10.8983C7.70502 11.0781 7.95993 11.009 8.10948 10.9965C7.9943 11.096 7.76628 11.2237 7.84375 11.4081Z" fill="white"/>
<path d="M16.1609 6.92785C15.9907 6.81004 15.9331 6.58237 16.0268 6.39826C16.0722 6.30924 16.0447 6.20038 15.9625 6.1435L14.9412 5.43645C14.8591 5.3796 14.7476 5.39218 14.6801 5.46595C14.6019 5.55165 14.4899 5.60081 14.3731 5.60081C14.2886 5.60081 14.2071 5.57528 14.1373 5.5269C13.9671 5.40909 13.9095 5.18142 14.0032 4.99731C14.0486 4.90828 14.0211 4.79943 13.939 4.74255L12.9177 4.0355C12.8356 3.97865 12.724 3.99123 12.6566 4.065C12.5784 4.1507 12.4664 4.19981 12.3496 4.19986C12.2651 4.19986 12.1836 4.17433 12.1138 4.12594C12.0231 4.0632 11.8987 4.08578 11.8359 4.17644L10.6814 5.84397C10.6628 5.83204 10.642 5.82292 10.6195 5.81761L9.41016 5.53388C9.3129 5.51104 9.21371 5.56366 9.17802 5.65699C9.10504 5.8479 8.89374 5.95915 8.69523 5.91255C8.49378 5.86526 8.35674 5.67455 8.37652 5.46889C8.38609 5.36943 8.32064 5.2782 8.22336 5.25536L7.01408 4.9716C6.91685 4.94876 6.81765 5.00138 6.78194 5.09471C6.70899 5.2854 6.49749 5.39684 6.29915 5.3503C6.19191 5.32511 6.08437 5.39173 6.05914 5.49908C6.05914 5.49908 5.76014 6.77323 5.75988 6.77438L4.00532 14.2516C3.98014 14.359 4.04675 14.4665 4.1541 14.4916C4.3556 14.5389 4.49261 14.7297 4.47283 14.9353C4.46326 15.0348 4.52871 15.126 4.62597 15.1488L5.83522 15.4326C5.93267 15.4554 6.03168 15.4028 6.06736 15.3095C6.2355 14.8697 6.91381 15.0306 6.86891 15.4976C6.85934 15.597 6.92479 15.6883 7.02207 15.7111L8.23133 15.9949C8.32741 16.0173 8.42819 15.964 8.46347 15.8717C8.52444 15.7122 8.68011 15.6051 8.85085 15.6051C8.93892 15.6051 9.01458 15.6427 9.0971 15.5915C9.14209 15.5636 9.17419 15.519 9.18632 15.4674L9.44891 14.3484C9.44891 14.3484 10.012 14.7382 10.0121 14.7384C10.0915 14.7933 10.2061 14.7824 10.2733 14.7089C10.3515 14.6232 10.4635 14.5741 10.5803 14.5741C10.6647 14.5741 10.7463 14.5996 10.8161 14.648C10.9068 14.7107 11.0312 14.6881 11.094 14.5974L16.2113 7.2057C16.2741 7.11504 16.2515 6.99061 16.1609 6.92785ZM9.42791 12.6893C9.42791 12.6893 9.12698 13.9717 9.12695 13.9718L8.83738 15.2058C8.56766 15.2104 8.31852 15.3509 8.1721 15.5708L7.26378 15.3577C7.22206 15.0266 6.97741 14.744 6.64136 14.6652C6.31312 14.5882 5.96279 14.7281 5.77602 15.0086L4.86772 14.7954C4.83428 14.5302 4.6706 14.296 4.43399 14.1729L6.1032 7.0595L6.29762 7.10511C6.31295 7.1087 6.32826 7.11045 6.3434 7.11045C6.43398 7.11045 6.516 7.04833 6.53763 6.95633C6.56281 6.84896 6.4962 6.74151 6.38882 6.71632L6.19445 6.67071L6.40798 5.76073C6.6777 5.75621 6.92682 5.61571 7.07326 5.39577L7.98158 5.60892C8.0233 5.93999 8.26793 6.22255 8.60397 6.30144C8.93217 6.37843 9.28262 6.23853 9.46931 5.95807L10.3776 6.17119C10.3802 6.17184 10.386 6.22358 10.3871 6.2293C10.399 6.28811 10.4181 6.34736 10.4431 6.40271C10.5182 6.56903 10.6492 6.70965 10.8114 6.79382L10.5978 7.70401L10.4034 7.6584C10.2962 7.63324 10.1886 7.6998 10.1633 7.80718C10.1382 7.91456 10.2048 8.022 10.3121 8.04719L10.5065 8.0928L10.189 9.44613C10.189 9.44613 10.1543 9.59395 10.1543 9.59405L9.92108 10.5877C9.92106 10.5876 9.42791 12.6892 9.42791 12.6893ZM15.2514 7.89076L15.0872 7.77707C14.9965 7.71428 14.8721 7.73693 14.8094 7.82756C14.7466 7.91824 14.7692 8.04262 14.8599 8.10541L15.024 8.21908L10.8651 14.2261C10.7746 14.1922 10.6784 14.1746 10.5802 14.1746C10.4116 14.1746 10.2481 14.227 10.1123 14.322L9.54689 13.9305L9.7498 13.0658L10.6329 13.6772C10.7226 13.7393 10.8486 13.7164 10.9107 13.6267L13.4786 9.91771C13.5414 9.82703 13.5188 9.70265 13.4281 9.63986C13.3374 9.57707 13.2131 9.5997 13.1503 9.69035L10.696 13.2352L9.84782 12.648L10.2372 10.9888L10.9385 10.7431L11.3929 11.3394C11.4314 11.39 11.4906 11.4181 11.5517 11.4181C11.5738 11.4181 11.5961 11.4145 11.6177 11.4068C11.6994 11.3783 11.7533 11.3004 11.7513 11.2138L11.7342 10.4644L12.4418 10.2165C12.5234 10.188 12.5774 10.11 12.5754 10.0236C12.5734 9.93708 12.516 9.86169 12.4331 9.83683L11.715 9.62144L11.6979 8.87192C11.696 8.78542 11.6385 8.71005 11.5557 8.6852C11.4728 8.66035 11.3834 8.6917 11.3341 8.76282L10.9074 9.37918L10.634 9.29718L11.1481 7.10655L11.3997 6.74311L13.9623 8.51726L13.6148 9.01919C13.552 9.10987 13.5746 9.23425 13.6653 9.29704C13.756 9.35983 13.8803 9.33718 13.9432 9.24655C13.9432 9.24655 14.4027 8.58273 14.4043 8.5805C14.466 8.49128 14.4426 8.36417 14.3538 8.30265C14.3538 8.30265 11.468 6.30479 11.4629 6.30117C11.3731 6.23903 11.247 6.26207 11.185 6.35167L11.0983 6.47686C11.0959 6.47622 11.0937 6.47538 11.0912 6.47481C10.9928 6.45163 10.9054 6.39233 10.8472 6.30971C10.8467 6.30912 10.8464 6.30847 10.8459 6.30785L11.3052 5.64446C11.3052 5.64446 11.4694 5.75808 11.4694 5.75813C11.5566 5.8185 11.6844 5.79831 11.7472 5.70761C11.81 5.61695 11.7874 5.49255 11.6967 5.42976L11.5326 5.31609L12.0646 4.54767C12.1551 4.58164 12.2513 4.59919 12.3496 4.59919C12.5181 4.59919 12.6816 4.54676 12.8174 4.45183L13.5844 4.98284C13.502 5.30619 13.6261 5.65872 13.9099 5.85522C14.1874 6.04736 14.5644 6.04595 14.841 5.85278L15.608 6.38379C15.542 6.64284 15.6085 6.92069 15.7835 7.12195L15.2514 7.89076ZM11.3381 10.6086C11.3381 10.6086 11.1684 10.3858 11.1683 10.3857C11.1165 10.3178 11.0239 10.29 10.9434 10.3183L10.679 10.4109C10.766 10.2851 10.9547 10.1055 10.8331 9.94581L10.6633 9.72288C10.6633 9.72288 10.9315 9.80332 10.9318 9.8034C11.1189 9.85951 11.2268 9.61952 11.3128 9.49541C11.3128 9.49541 11.3192 9.77529 11.3192 9.77555C11.3236 9.97035 11.5862 9.99968 11.7298 10.0428L11.4654 10.1354C11.3837 10.164 11.3298 10.2419 11.3317 10.3284L11.3381 10.6086Z" fill="white"/>
</svg>
