<svg width="30" height="30" viewBox="0 0 30 30" fill="none" xmlns="http://www.w3.org/2000/svg">
<path d="M30 15C30 6.71588 23.2841 0 15 0C6.71588 0 0 6.71588 0 15C0 23.2841 6.71588 30 15 30C23.2841 30 30 23.2841 30 15ZM1.36363 15C1.36363 7.46863 7.46863 1.36363 15 1.36363C22.5314 1.36363 28.6364 7.46863 28.6364 15C28.6364 22.5314 22.5314 28.6364 15 28.6364C7.46863 28.6364 1.36363 22.5314 1.36363 15Z" fill="#FD275F"/>
<path d="M15.5753 23.6579V15.0002H18.4321L18.8835 12.1312H15.5753V10.6925C15.5753 9.94391 15.8207 9.22935 16.8953 9.22935H19.043V6.36572H15.9939C13.4303 6.36572 12.7307 8.05386 12.7307 10.3939V12.1298H10.9717V15.0002H12.7307V23.6579H15.5753Z" fill="#FD275F"/>
</svg>
