<svg width="100" height="75" viewBox="0 0 100 75" fill="none" xmlns="http://www.w3.org/2000/svg">
<rect x="1.5" y="1.5" width="97" height="72" stroke="url(#paint0_linear)" stroke-width="3"/>
<path d="M36.0277 29.8H46.0777V34H31.0177V31.12C31.0177 29.4 31.0777 28.1 31.1977 27.22C31.3377 26.34 31.6377 25.6 32.0977 25C32.5777 24.4 33.3377 23.88 34.3777 23.44L38.9077 21.61C39.5077 21.37 39.9377 21.16 40.1977 20.98C40.4577 20.8 40.6277 20.59 40.7077 20.35C40.8077 20.09 40.8577 19.7 40.8577 19.18C40.8577 18.6 40.7577 18.18 40.5577 17.92C40.3577 17.64 40.0177 17.46 39.5377 17.38C39.0577 17.3 38.3077 17.26 37.2877 17.26C35.7477 17.26 33.7977 17.41 31.4377 17.71V13.81C32.4177 13.61 33.5877 13.45 34.9477 13.33C36.3277 13.19 37.5777 13.12 38.6977 13.12C40.2577 13.12 41.5577 13.26 42.5977 13.54C43.6377 13.8 44.4777 14.36 45.1177 15.22C45.7577 16.06 46.0777 17.28 46.0777 18.88C46.0777 20.7 45.7977 22.06 45.2377 22.96C44.6777 23.84 43.8077 24.51 42.6277 24.97L40.1677 25.93L37.4977 26.98C36.8977 27.2 36.5077 27.44 36.3277 27.7C36.2077 27.88 36.1277 28.1 36.0877 28.36C36.0477 28.6 36.0277 28.93 36.0277 29.35V29.8ZM58.5683 34.24C57.7283 34.24 56.6883 34.17 55.4483 34.03C54.2283 33.91 53.0683 33.76 51.9683 33.58V29.71C54.3483 29.97 56.2283 30.1 57.6083 30.1C59.0283 30.1 60.0483 29.98 60.6683 29.74C61.3083 29.48 61.7283 29.01 61.9283 28.33C62.1283 27.65 62.2283 26.52 62.2283 24.94H62.0483C61.1483 25.9 59.6083 26.38 57.4283 26.38C55.8483 26.38 54.5783 26.22 53.6183 25.9C52.6783 25.56 51.9683 24.95 51.4883 24.07C51.0083 23.19 50.7683 21.92 50.7683 20.26C50.7683 18.44 50.9883 17.03 51.4283 16.03C51.8683 15.03 52.6583 14.3 53.7983 13.84C54.9383 13.36 56.6083 13.12 58.8083 13.12C60.4883 13.12 61.8283 13.21 62.8283 13.39C63.8483 13.57 64.6683 13.91 65.2883 14.41C65.9283 14.91 66.4083 15.66 66.7283 16.66C66.9883 17.46 67.1683 18.42 67.2683 19.54C67.3883 20.66 67.4483 22.02 67.4483 23.62C67.4483 25.44 67.3583 26.96 67.1783 28.18C66.9983 29.4 66.7083 30.38 66.3083 31.12C65.7283 32.26 64.8283 33.07 63.6083 33.55C62.4083 34.01 60.7283 34.24 58.5683 34.24ZM59.0183 22.3C59.9583 22.3 60.6483 22.23 61.0883 22.09C61.5283 21.93 61.8083 21.7 61.9283 21.4C62.0683 21.1 62.1383 20.65 62.1383 20.05C62.1383 19.13 62.0383 18.48 61.8383 18.1C61.6583 17.7 61.3683 17.45 60.9683 17.35C60.5683 17.25 59.9183 17.2 59.0183 17.2C58.0583 17.2 57.3583 17.25 56.9183 17.35C56.4983 17.45 56.1983 17.67 56.0183 18.01C55.8583 18.35 55.7783 18.91 55.7783 19.69C55.7783 20.49 55.8583 21.07 56.0183 21.43C56.1983 21.79 56.4983 22.03 56.9183 22.15C57.3583 22.25 58.0583 22.3 59.0183 22.3Z" fill="#FD275F"/>
<path d="M42.317 61V48.928H42.221L37.229 61H35.309L30.341 48.928H30.245V61H27.701V44.488H31.397L36.269 56.176H36.389L41.261 44.488H44.933V61H42.317ZM53.3652 61.192C52.0532 61.192 51.0852 60.92 50.4612 60.376C49.8532 59.832 49.5492 58.904 49.5492 57.592C49.5492 56.632 49.6612 55.888 49.8852 55.36C50.1092 54.816 50.4932 54.424 51.0372 54.184C51.5812 53.928 52.3492 53.8 53.3412 53.8C54.2532 53.8 55.6372 53.832 57.4932 53.896V53.368C57.4932 52.552 57.4052 51.976 57.2292 51.64C57.0692 51.288 56.7652 51.064 56.3172 50.968C55.8692 50.872 55.0932 50.824 53.9892 50.824C53.4612 50.824 52.8132 50.848 52.0452 50.896C51.2772 50.944 50.7092 51 50.3412 51.064V48.928C51.6852 48.688 53.1972 48.568 54.8772 48.568C56.3812 48.568 57.4932 48.736 58.2132 49.072C58.9492 49.392 59.4372 49.888 59.6772 50.56C59.9172 51.232 60.0372 52.2 60.0372 53.464V61H57.7092L57.6132 59.44H57.4692C57.1012 60.144 56.5572 60.616 55.8372 60.856C55.1172 61.08 54.2932 61.192 53.3652 61.192ZM54.5172 59.008C55.1732 59.008 55.7092 58.944 56.1252 58.816C56.5412 58.672 56.8532 58.432 57.0612 58.096C57.3492 57.616 57.4932 56.912 57.4932 55.984V55.624H53.9892C53.4292 55.624 53.0132 55.664 52.7412 55.744C52.4852 55.824 52.3012 55.984 52.1892 56.224C52.0932 56.464 52.0452 56.832 52.0452 57.328C52.0452 57.824 52.1012 58.192 52.2132 58.432C52.3412 58.656 52.5732 58.808 52.9092 58.888C53.2452 58.968 53.7812 59.008 54.5172 59.008ZM65.0624 48.76H67.3904L67.4864 50.944H67.6784C67.9664 50.048 68.4304 49.432 69.0704 49.096C69.7264 48.744 70.5984 48.568 71.6864 48.568V51.208C70.5984 51.208 69.7584 51.368 69.1664 51.688C68.5904 51.992 68.1824 52.48 67.9424 53.152C67.7184 53.808 67.6064 54.728 67.6064 55.912V61H65.0624V48.76Z" fill="#060F20"/>
<defs>
<linearGradient id="paint0_linear" x1="50" y1="0" x2="50" y2="75" gradientUnits="userSpaceOnUse">
<stop stop-color="#FD275F"/>
<stop offset="1" stop-color="#53C7F0"/>
</linearGradient>
</defs>
</svg>
