<svg width="14" height="12" viewBox="0 0 14 12" fill="none" xmlns="http://www.w3.org/2000/svg">
<path d="M4.28571 6.85714H3.85714C2.91027 6.85714 2.14286 7.62589 2.14286 8.57464V10.2825C2.14286 11.231 2.91027 12 3.85714 12H4.28571C4.75902 12 5.14286 11.6154 5.14286 11.1413V7.71589C5.14286 7.24152 4.75902 6.85714 4.28571 6.85714ZM9.85714 6.85714H9.42857C8.95527 6.85714 8.57143 7.24152 8.57143 7.71589V11.1413C8.57143 11.6154 8.95527 12 9.42857 12H9.85714C10.804 12 11.5714 11.231 11.5714 10.2825V8.57464C11.5714 7.62616 10.804 6.85714 9.85714 6.85714ZM6.85714 0C3.02438 0 0.122411 3.19098 0 6.85714V9.85714C0 10.0939 0.191786 10.2857 0.428571 10.2857H0.857143C1.09393 10.2857 1.28571 10.0939 1.28571 9.85714V6.85714C1.28571 3.78562 3.78562 1.29107 6.85714 1.29054C9.92866 1.29107 12.4286 3.78562 12.4286 6.85714V9.85714C12.4286 10.0939 12.6204 10.2857 12.8571 10.2857H13.2857C13.5225 10.2857 13.7143 10.0939 13.7143 9.85714V6.85714C13.5919 3.19098 10.6899 0 6.85714 0Z" fill="white"/>
</svg>
