<svg width="30" height="30" viewBox="0 0 30 30" fill="none" xmlns="http://www.w3.org/2000/svg">
<path d="M14.9994 18.0029C16.6543 18.0029 18.0035 16.6561 18.0035 15C18.0035 14.3462 17.7896 13.7426 17.4355 13.2496C16.8899 12.4931 16.003 11.9971 15.0012 11.9971C13.9988 11.9971 13.1124 12.4925 12.5656 13.249C12.2104 13.742 11.9983 14.3456 11.9977 14.9994C11.9959 16.6555 13.3439 18.0029 14.9994 18.0029Z" fill="#FD275F"/>
<path d="M21.5568 11.3265V8.80942V8.43481L21.1803 8.43602L18.6644 8.44388L18.6741 11.3362L21.5568 11.3265Z" fill="#FD275F"/>
<path d="M15 0C6.72903 0 0 6.72903 0 15C0 23.2704 6.72903 30 15 30C23.2704 30 30 23.2704 30 15C30 6.72903 23.2716 0 15 0ZM23.5308 13.2496V20.2342C23.5308 22.0535 22.0517 23.532 20.2336 23.532H9.76637C7.94772 23.532 6.46923 22.0535 6.46923 20.2342V13.2496V9.76698C6.46923 7.94832 7.94772 6.46983 9.76637 6.46983H20.233C22.0517 6.46983 23.5308 7.94832 23.5308 9.76698V13.2496Z" fill="#FD275F"/>
<path d="M19.6662 14.9999C19.6662 17.572 17.5733 19.6662 14.9999 19.6662C12.4266 19.6662 10.3343 17.572 10.3343 14.9999C10.3343 14.3812 10.4575 13.7897 10.6775 13.2495H8.13074V20.2341C8.13074 21.1368 8.86364 21.8679 9.76572 21.8679H20.2324C21.1332 21.8679 21.8673 21.1368 21.8673 20.2341V13.2495H19.3194C19.5412 13.7897 19.6662 14.3812 19.6662 14.9999Z" fill="#FD275F"/>
</svg>
