<svg width="20" height="20" viewBox="0 0 20 20" fill="none" xmlns="http://www.w3.org/2000/svg">
<path d="M10.0086 0C4.49612 0 0 4.4789 0 10.0086C0 15.5383 4.4789 20 10.0086 20C15.5383 20 20 15.5211 20 10.0086C20 4.49612 15.5211 0 10.0086 0ZM10.0086 18.6047C5.27132 18.6047 1.41257 14.7459 1.41257 10.0086C1.41257 5.27132 5.27132 1.41257 10.0086 1.41257C14.7459 1.41257 18.6047 5.27132 18.6047 10.0086C18.6047 14.7459 14.7459 18.6047 10.0086 18.6047Z" fill="#FD275F"/>
<path d="M9.06042 5.01372C8.92261 4.87591 8.75034 4.807 8.56085 4.807C8.38859 4.807 8.19909 4.87591 8.06128 5.01372C7.78566 5.28935 7.78566 5.73724 8.06128 6.01286L12.1095 10.0611L8.06128 14.1093C7.78566 14.385 7.78566 14.8328 8.06128 15.1085C8.33691 15.3841 8.7848 15.3841 9.06042 15.1085L13.6082 10.5607C13.746 10.4229 13.8149 10.2506 13.8149 10.0611C13.8149 9.8716 13.746 9.69934 13.6082 9.56153L9.06042 5.01372Z" fill="#FD275F"/>
</svg>
