<svg width="40" height="40" viewBox="0 0 40 40" fill="none" xmlns="http://www.w3.org/2000/svg">
<path d="M38.275 27.1936C39.0948 26.1481 39.4879 25.0272 39.4377 23.8729C39.3875 22.6014 38.8187 21.606 38.3503 20.9954C38.894 19.6403 39.1031 17.5073 37.288 15.8511C35.958 14.6382 33.6995 14.0945 30.5711 14.2451C28.3712 14.3455 26.531 14.7553 26.4557 14.7721H26.4473C26.0291 14.8473 25.5858 14.9394 25.1341 15.0397C25.1006 14.5044 25.1926 13.1744 26.1797 10.1798C27.3507 6.61648 27.2838 3.88959 25.9622 2.06608C24.5737 0.150565 22.357 0 21.7046 0C21.0772 0 20.5 0.259306 20.0902 0.736094C19.1617 1.81514 19.2704 3.80594 19.3875 4.72606C18.2834 7.68716 15.1885 14.9477 12.5703 16.9636C12.5201 16.9971 12.4783 17.0389 12.4365 17.0807C11.6669 17.8921 11.1483 18.7704 10.797 19.5399C10.3035 19.2723 9.74303 19.1217 9.14078 19.1217H4.03831C2.11443 19.1217 0.558594 20.6859 0.558594 22.6014V36.1941C0.558594 38.1179 2.12279 39.6738 4.03831 39.6738H9.14078C9.88523 39.6738 10.5795 39.4396 11.1483 39.0381L13.114 39.2723C13.4151 39.3141 18.7685 39.9916 24.2642 39.8829C25.2596 39.9582 26.1964 40 27.0663 40C28.5636 40 29.8685 39.8829 30.9559 39.6487C33.5155 39.105 35.2637 38.0176 36.1504 36.4199C36.8279 35.1987 36.8279 33.9858 36.7192 33.2162C38.3838 31.7106 38.6765 30.046 38.618 28.8749C38.5845 28.1974 38.434 27.6202 38.275 27.1936ZM4.03831 37.4153C3.36077 37.4153 2.81706 36.8632 2.81706 36.1941V22.5931C2.81706 21.9155 3.36913 21.3718 4.03831 21.3718H9.14078C9.81832 21.3718 10.362 21.9239 10.362 22.5931V36.1857C10.362 36.8632 9.80995 37.4069 9.14078 37.4069H4.03831V37.4153ZM36.1337 26.215C35.7823 26.583 35.7154 27.1435 35.9831 27.5784C35.9831 27.5868 36.3261 28.1723 36.3679 28.9753C36.4264 30.0711 35.8995 31.0414 34.7953 31.8695C34.4022 32.1706 34.2432 32.6893 34.4105 33.1577C34.4105 33.166 34.7702 34.2702 34.1847 35.3158C33.6243 36.3195 32.3779 37.0389 30.4875 37.4404C28.9735 37.7666 26.9158 37.8252 24.3896 37.6244C24.3562 37.6244 24.3143 37.6244 24.2725 37.6244C18.894 37.7415 13.457 37.0389 13.3984 37.0305H13.39L12.5452 36.9302C12.5954 36.6959 12.6205 36.445 12.6205 36.1941V22.5931C12.6205 22.2334 12.5619 21.8821 12.4616 21.5558C12.6121 20.9954 13.0304 19.7491 14.0174 18.6867C17.7731 15.7089 21.4452 5.6629 21.6042 5.22794C21.6711 5.05228 21.6878 4.85989 21.6544 4.6675C21.5122 3.73066 21.5624 2.58469 21.7631 2.24174C22.2064 2.2501 23.4026 2.37557 24.122 3.37097C24.9752 4.5504 24.9417 6.6583 24.0216 9.45211C22.6163 13.7097 22.4992 15.9515 23.6117 16.9385C24.1638 17.432 24.8999 17.4571 25.4352 17.2647C25.9455 17.1476 26.4306 17.0473 26.8907 16.972C26.9241 16.9636 26.966 16.9552 26.9994 16.9469C29.5674 16.3864 34.168 16.0435 35.7656 17.499C37.1207 18.7369 36.1588 20.3764 36.05 20.5521C35.7405 21.0205 35.8325 21.6311 36.2508 22.0075C36.2591 22.0159 37.1374 22.844 37.1793 23.9565C37.2127 24.701 36.8614 25.4621 36.1337 26.215Z" fill="#53C7F0"/>
</svg>
