<svg width="83" height="78" viewBox="0 0 83 78" fill="none" xmlns="http://www.w3.org/2000/svg">
<path d="M81.3336 6.7778H75.117L79.1837 2.71112H81.3336C82.0822 2.71112 82.6891 2.10417 82.6891 1.35556C82.6891 0.606952 82.0822 0 81.3336 0H1.35556C0.606952 0 0 0.606952 0 1.35556C0 2.10417 0.606952 2.71112 1.35556 2.71112H7.57216L3.50548 6.7778H1.35556C0.606952 6.7778 0 7.38475 0 8.13336C0 8.88197 0.606952 9.48892 1.35556 9.48892H5.47782L5.42224 14.6631L2.95512 17.2495C0.705569 19.6092 0.791816 23.3448 3.14761 25.5984L8.67829 30.8851C8.93043 31.1267 9.26593 31.2616 9.61498 31.2619H9.64616C9.80832 31.2543 9.96794 31.2185 10.1179 31.1562L25.2283 52.8668L17.6914 75.4776C17.4549 76.1887 17.8397 76.9572 18.5508 77.1937C19.262 77.4302 20.0304 77.0454 20.267 76.3343L27.1627 55.6444L31.4232 61.7688C31.8507 62.3834 32.6956 62.5352 33.3102 62.1077C33.9247 61.6802 34.0766 60.8353 33.6491 60.2207L28.2268 52.4358L36.5269 27.5341C36.5686 27.3972 36.5877 27.2544 36.5838 27.1112H44.7457C44.7413 27.2678 44.7648 27.4236 44.8148 27.5721L50.7101 43.9012L44.9788 52.0901C44.5313 52.6903 44.6552 53.5397 45.2554 53.987C45.8555 54.4344 46.705 54.3107 47.1523 53.7105C47.1686 53.6886 47.1842 53.6663 47.1992 53.6436L51.8366 47.0189L62.4371 76.3722C62.6311 76.909 63.1406 77.2667 63.7113 77.2669C63.8685 77.2671 64.0246 77.2396 64.1722 77.1856C64.8757 76.9307 65.2397 76.1542 64.9855 75.4504L53.7344 44.3024L65.7636 27.1193L74.3877 30.0677L65.1021 67.4513C64.9215 68.1779 65.3639 68.9133 66.0905 69.0939C66.0908 69.0941 66.0913 69.0941 66.0917 69.0942C66.1999 69.1202 66.3109 69.1334 66.4224 69.1335C67.045 69.1332 67.5874 68.7089 67.7373 68.1047L76.9714 30.923C77.0639 30.9486 77.159 30.9645 77.2547 30.9705C77.8344 30.9703 78.3498 30.6014 78.5371 30.0528L81.0137 22.8154C82.068 19.7298 80.4223 16.3738 77.3374 15.3178L77.2669 15.2921V9.48892H81.3336C82.0822 9.48892 82.6891 8.88197 82.6891 8.13336C82.6891 7.38475 82.0822 6.7778 81.3336 6.7778ZM75.3501 2.71112L71.8447 6.2166L68.3392 2.71112H75.3501ZM68.5723 6.7778H61.5614L65.0669 3.27232L68.5723 6.7778ZM61.7945 2.71112L58.2891 6.2166L54.7836 2.71112H61.7945ZM55.0167 6.7778H48.0058L51.5113 3.27232L55.0167 6.7778ZM48.2389 2.71112L44.7335 6.2166L41.228 2.71112H48.2389ZM41.4612 6.7778H34.4502L37.9557 3.27232L41.4612 6.7778ZM34.6833 2.71112L31.1779 6.2166L27.6724 2.71112H34.6833ZM27.9056 6.7778H20.8946L24.4001 3.27232L27.9056 6.7778ZM21.1278 2.71112L17.6223 6.2166L14.1168 2.71112H21.1278ZM10.8445 3.27232L14.35 6.7778H7.339L10.8445 3.27232ZM9.57161 27.9855L5.01557 23.6382C3.74033 22.4189 3.69356 20.3971 4.91119 19.1202L7.9978 15.8994C8.58018 15.2858 9.38335 14.9301 10.2291 14.9112H10.3023C11.1244 14.9093 11.915 15.2267 12.5077 15.7963L17.0584 20.1409L9.57161 27.9855ZM26.2979 49.6636L12.1038 29.2584L17.7307 23.3658L31.8055 32.322C31.8812 32.3645 31.9607 32.4004 32.0427 32.4291L26.2979 49.6636ZM33.8199 27.0976L32.9143 29.8088L19.6407 21.3623L19.9579 21.0302C20.4749 20.4886 20.4549 19.6305 19.9133 19.1136L19.9132 19.1134L14.3825 13.8267C13.2565 12.7343 11.7346 12.147 10.1667 12.2C9.47773 12.2209 8.79775 12.3627 8.15776 12.6189L8.19029 9.48892H39.3112V12.2H38.4396C35.1795 12.2044 32.5378 14.8463 32.5334 18.1062V25.7556C32.5356 26.4746 33.1017 27.0651 33.8199 27.0976ZM46.089 24.4001H35.2446V18.1062C35.2476 16.3428 36.6762 14.9142 38.4396 14.9112H42.894C44.6574 14.9142 46.086 16.3428 46.089 18.1062V24.4001ZM65.6226 17.5518L63.1474 24.7905C63.0308 25.1307 63.0542 25.5032 63.2125 25.8261C63.2328 25.8654 63.268 25.8912 63.2911 25.9291L52.612 41.1846L47.5246 27.0949C48.2378 27.0575 48.7976 26.4697 48.8001 25.7556V18.1062C48.7957 14.8461 46.1539 12.2044 42.894 12.2H42.0224V9.48892H74.5558V14.3689L73.123 13.8782C70.0377 12.8275 66.6839 14.4703 65.6226 17.5518ZM78.4557 21.9397L76.4224 27.8933L66.1513 24.3838L68.1847 18.4356C68.753 16.7635 70.5691 15.8685 72.2413 16.4368C72.2447 16.438 72.2481 16.439 72.2513 16.4402L76.4671 17.8812C78.1362 18.4537 79.0261 20.27 78.4557 21.9397Z" fill="#53C7F0"/>
</svg>
