<svg width="80" height="80" viewBox="0 0 80 80" fill="none" xmlns="http://www.w3.org/2000/svg">
<path d="M78.7061 47.6984C77.843 46.7712 76.6895 46.2604 75.4584 46.2604C74.9207 46.2604 74.4049 46.3593 73.9264 46.5405C73.5864 44.9921 72.5262 43.7305 71.1359 43.1665C71.6235 40.7892 71.875 38.3649 71.875 35.9375C71.875 26.3379 68.1366 17.3132 61.3489 10.5255C54.5612 3.7384 45.5365 0 35.9375 0C30.4889 0 25.022 1.26709 20.1282 3.66394C19.3536 4.04358 19.0326 4.97925 19.4122 5.75439C19.7919 6.52954 20.7275 6.84998 21.5027 6.47034C25.9711 4.28162 30.9625 3.125 35.9375 3.125C54.0302 3.125 68.75 17.8448 68.75 35.9375C68.75 38.1372 68.5242 40.3339 68.0853 42.489V32.6428C68.0853 30.0171 66.048 27.8815 63.5437 27.8815C61.04 27.8815 59.0027 30.0171 59.0027 32.6428V32.7454C58.5565 32.5916 58.0811 32.5073 57.5867 32.5073C55.0824 32.5073 53.0457 34.6429 53.0457 37.2687V50.3162C51.1859 50.9644 49.8468 52.7344 49.8468 54.8126V57.6428C48.5095 58.4998 47.0911 59.2352 45.6195 59.8315C44.8193 60.1556 44.4342 61.0669 44.7583 61.8665C45.0043 62.4744 45.589 62.843 46.2067 62.843C46.402 62.843 46.601 62.8058 46.7932 62.7277C47.8375 62.3047 48.8574 61.817 49.8468 61.2744V62.4921C49.8468 63.5168 49.9512 64.5258 50.1526 65.5078C45.7318 67.63 40.8435 68.75 35.9375 68.75C17.8448 68.75 3.125 54.0302 3.125 35.9375C3.125 27.1729 6.53809 18.9331 12.7356 12.7356C13.3459 12.1252 13.3459 11.1359 12.7356 10.5255C12.1259 9.91577 11.1365 9.91577 10.5261 10.5255C7.17163 13.88 4.55078 17.8027 2.7356 22.1844C0.92041 26.5668 0 31.1938 0 35.9375C0 45.5365 3.7384 54.5612 10.5255 61.3489C17.3132 68.1366 26.3379 71.875 35.9375 71.875C41.1639 71.875 46.3702 70.7135 51.106 68.5114C52.2986 71.239 54.2896 73.5931 56.8756 75.2283V78.4375C56.8756 79.3005 57.5751 80 58.4381 80H73.692C74.5551 80 75.2545 79.3005 75.2545 78.4375V73.4485C78.2788 70.5957 79.9994 66.6437 79.9994 62.4921L80 51.0217C80.0006 49.7754 79.541 48.5944 78.7061 47.6984ZM76.875 62.4921C76.875 65.9741 75.3442 69.2816 72.6758 71.5674C72.6599 71.5808 72.6465 71.5961 72.6312 71.6095C72.6129 71.6272 72.594 71.6437 72.5763 71.662C72.5562 71.6827 72.5372 71.7041 72.5189 71.7255C72.5043 71.7419 72.4896 71.7584 72.4756 71.7755C72.4567 71.7987 72.439 71.8231 72.4219 71.8469C72.4097 71.864 72.3975 71.8811 72.3859 71.8982C72.37 71.9226 72.3547 71.9482 72.3407 71.9733C72.3291 71.9922 72.3187 72.0111 72.3083 72.0306C72.2955 72.0551 72.2839 72.0795 72.2729 72.1045C72.2626 72.1265 72.2528 72.1484 72.2437 72.171C72.2339 72.1942 72.226 72.2174 72.2174 72.2412C72.2089 72.2662 72.2009 72.2906 72.193 72.3163C72.1863 72.3395 72.1808 72.3627 72.1753 72.3859C72.1692 72.4121 72.1625 72.4377 72.1576 72.464C72.1527 72.489 72.1497 72.514 72.146 72.5397C72.1429 72.5647 72.1393 72.5891 72.1368 72.6147C72.1344 72.6434 72.1332 72.6727 72.1326 72.702C72.132 72.7191 72.1301 72.7368 72.1301 72.7545V76.875H60.0006V74.3518C60.0006 74.3475 60.0006 74.3433 60.0006 74.339V74.3378C60.0006 74.3347 60.0006 74.3311 60.0006 74.328C60 74.2804 59.9982 74.2328 59.9933 74.1864C59.9908 74.162 59.9866 74.1388 59.9829 74.115C59.9792 74.0894 59.9762 74.0631 59.9713 74.0375C59.9652 74.007 59.9573 73.9764 59.9493 73.9459C59.9445 73.9282 59.9408 73.9099 59.9353 73.8922C59.9261 73.8605 59.9146 73.83 59.903 73.7988C59.8969 73.7823 59.8914 73.7653 59.8853 73.7494C59.8737 73.7207 59.8602 73.6926 59.8468 73.6652C59.8383 73.6469 59.8297 73.6285 59.8206 73.6102C59.8077 73.5864 59.7937 73.5638 59.7803 73.5406C59.7675 73.5193 59.7552 73.4979 59.7418 73.4778C59.729 73.4589 59.7156 73.4406 59.7021 73.4222C59.6857 73.399 59.6692 73.3759 59.6515 73.3539C59.6387 73.338 59.6246 73.3234 59.6112 73.3081C59.5917 73.2855 59.5715 73.2629 59.5502 73.241C59.5349 73.2257 59.5184 73.2111 59.5026 73.1964C59.4818 73.1769 59.4617 73.158 59.4403 73.1396C59.4165 73.1195 59.3915 73.1018 59.3665 73.0829C59.3512 73.0719 59.3365 73.0597 59.3207 73.0487C59.2749 73.0176 59.2279 72.9883 59.1791 72.962C55.3497 70.8557 52.9718 66.8451 52.9718 62.4921V54.8126C52.9718 53.9105 53.7054 53.1769 54.6075 53.1769C55.4706 53.1769 56.17 52.4768 56.17 51.6144V37.2687C56.17 36.3818 56.8188 35.6323 57.5867 35.6323C58.3539 35.6323 59.0027 36.3818 59.0027 37.2687V51.6144C59.0027 52.4768 59.7021 53.1769 60.5652 53.1769C61.4282 53.1769 62.1277 52.4768 62.1277 51.6144V32.6428C62.1277 31.756 62.7759 31.0065 63.5437 31.0065C64.3115 31.0065 64.9603 31.756 64.9603 32.6428V51.6144C64.9603 52.4768 65.6598 53.1769 66.5228 53.1769C67.3853 53.1769 68.0853 52.4768 68.0853 51.6144V47.6068C68.0853 46.72 68.7335 45.9705 69.5013 45.9705C70.2692 45.9705 70.9174 46.72 70.9174 47.6068V52.2491C70.9174 53.1122 71.6162 53.8116 72.4792 53.8123H72.4799C73.3423 53.8123 74.0424 53.1128 74.0424 52.2498V51.0217C74.043 50.1349 74.6912 49.3854 75.459 49.3854C75.8124 49.3854 76.1536 49.5422 76.4191 49.8279C76.7133 50.1434 76.875 50.567 76.875 51.0205V62.4921Z" fill="#53C7F0"/>
<path d="M56.377 17.7075C56.9873 17.0972 56.9873 16.1078 56.377 15.4974C53.6792 12.7997 50.5243 10.6915 46.9989 9.23157C43.4747 7.77161 39.7528 7.03125 35.9375 7.03125C19.9982 7.03125 7.03125 19.9982 7.03125 35.9375C7.03125 36.7999 7.73071 37.5 8.59375 37.5C9.45679 37.5 10.1562 36.7999 10.1562 35.9375C10.1562 21.7218 21.7218 10.1562 35.9375 10.1562C42.8235 10.1562 49.2981 12.8381 54.1675 17.7075C54.7778 18.3173 55.7672 18.3173 56.377 17.7075Z" fill="#53C7F0"/>
<path d="M17.9298 28.1006C18.4931 28.1006 19.037 27.7948 19.3159 27.2607C22.5593 21.0474 28.9283 17.1875 35.9376 17.1875C39.2243 17.1875 42.4659 18.056 45.3126 19.6991C46.0597 20.1306 47.0155 19.8749 47.447 19.1272C47.8785 18.3801 47.6222 17.4243 46.8751 16.9928C43.5542 15.0757 39.7718 14.0625 35.9376 14.0625C27.7601 14.0625 20.3297 18.5657 16.5461 25.8148C16.1463 26.5796 16.443 27.5238 17.2077 27.923C17.4384 28.0432 17.6856 28.1006 17.9298 28.1006Z" fill="#53C7F0"/>
<path d="M35.9375 54.6876C29.2602 54.6876 23.0383 51.0951 19.6997 45.3126C19.2682 44.5649 18.3124 44.3086 17.5653 44.7407C16.8176 45.1722 16.5619 46.1274 16.9934 46.8751C20.888 53.6213 28.147 57.8126 35.9375 57.8126C36.8005 57.8126 37.5 57.1132 37.5 56.2501C37.5 55.3871 36.8005 54.6876 35.9375 54.6876Z" fill="#53C7F0"/>
<path d="M35.9375 31.25C33.3527 31.25 31.25 33.3527 31.25 35.9375C31.25 38.5223 33.3527 40.625 35.9375 40.625C38.5223 40.625 40.625 38.5223 40.625 35.9375C40.625 33.3527 38.5223 31.25 35.9375 31.25ZM35.9375 37.5C35.0757 37.5 34.375 36.7987 34.375 35.9375C34.375 35.0757 35.0757 34.375 35.9375 34.375C36.7993 34.375 37.5 35.0757 37.5 35.9375C37.5 36.7987 36.7993 37.5 35.9375 37.5Z" fill="#53C7F0"/>
<path d="M50 35.9375C50 28.1836 43.6914 21.875 35.9375 21.875C28.1836 21.875 21.875 28.1836 21.875 35.9375C21.875 43.6914 28.1836 50 35.9375 50C43.6914 50 50 43.6914 50 35.9375ZM35.9375 46.875C29.9066 46.875 25 41.9684 25 35.9375C25 29.9066 29.9066 25 35.9375 25C41.9684 25 46.875 29.9066 46.875 35.9375C46.875 41.9684 41.9684 46.875 35.9375 46.875Z" fill="#53C7F0"/>
<path d="M15.1142 10.1508C15.445 10.1508 15.7782 10.0464 16.0614 9.83034L16.0883 9.80959C16.7774 9.29018 16.9153 8.31057 16.3965 7.62148C15.8771 6.93239 14.8975 6.79384 14.2084 7.31325L14.1651 7.34621C13.4796 7.86928 13.3478 8.85012 13.8709 9.53615C14.1785 9.93899 14.6436 10.1508 15.1142 10.1508Z" fill="#53C7F0"/>
<path d="M35.9375 61.7187C31.4184 61.7187 26.9604 60.5243 23.0468 58.2647C22.2998 57.8332 21.344 58.0896 20.9124 58.8366C20.4809 59.5837 20.7373 60.5395 21.4843 60.971C25.8728 63.5046 30.8703 64.8437 35.9375 64.8437C36.8005 64.8437 37.5 64.1436 37.5 63.2812C37.5 62.4182 36.8005 61.7187 35.9375 61.7187Z" fill="#53C7F0"/>
<path d="M41.6796 61.0706L41.6357 61.081C40.7946 61.2738 40.2691 62.1119 40.462 62.9529C40.628 63.6768 41.2713 64.1669 41.9836 64.1669C42.099 64.1669 42.2168 64.1541 42.3339 64.1266L42.3779 64.1169C43.2189 63.924 43.7445 63.086 43.5522 62.2449C43.3593 61.4039 42.5213 60.8777 41.6796 61.0706Z" fill="#53C7F0"/>
</svg>
