<svg width="87" height="80" viewBox="0 0 87 80" fill="none" xmlns="http://www.w3.org/2000/svg">
<path d="M17.6574 28.4809C18.4116 28.4809 19.1359 28.1645 19.6492 27.6021L29.7937 16.4878C30.7979 15.3875 30.7202 13.6814 29.6199 12.6773C28.5198 11.673 26.8138 11.7509 25.8094 12.8511L16.5684 22.9758L6.29178 22.0284C5.15334 21.9235 4.02331 22.3028 3.17885 23.0732C2.3344 23.8438 1.85328 24.9345 1.85395 26.0778L1.86354 46.5909L0.0071926 76.1785C-0.122387 78.2437 1.51519 80.0001 3.5999 80.0001C5.48301 80.0001 7.06589 78.5343 7.18571 76.629L8.83221 50.387H11.1884L14.1911 60.9178L13.7616 76.3035C13.7052 78.3231 15.3253 79.9999 17.3582 79.9999C19.2978 79.9999 20.8967 78.4554 20.9512 76.5041L21.396 60.5647C21.4061 60.1977 21.3602 59.8313 21.2594 59.4783L17.8008 47.351V31.06L6.53748 27.4766C18.1858 28.5403 17.4698 28.4809 17.6574 28.4809Z" fill="#53C7F0"/>
<path d="M37.0733 16.5201C36.2176 15.3009 34.5352 15.0067 33.3162 15.8623L32.7009 16.2941C32.4798 16.9622 32.1193 17.5958 31.6143 18.149L23.6624 26.8612L26.5257 26.7148C27.0328 26.6889 27.5221 26.5204 27.9375 26.2286L36.4155 20.2769C37.6347 19.4214 37.9289 17.7392 37.0733 16.5201Z" fill="#53C7F0"/>
<path d="M9.83123 19.5629C13.2749 19.5629 16.0665 16.7712 16.0665 13.3276C16.0665 9.88392 13.2749 7.09229 9.83123 7.09229C6.38758 7.09229 3.59595 9.88392 3.59595 13.3276C3.59595 16.7712 6.38758 19.5629 9.83123 19.5629Z" fill="#53C7F0"/>
<path d="M60.8174 29.5203C61.5717 29.5203 62.296 29.2039 62.8093 28.6415L72.9536 17.5272C73.9578 16.4269 73.88 14.7209 72.7798 13.7167C71.6797 12.7124 69.974 12.79 68.9693 13.8905L59.7283 24.0152L49.5863 23.0851C48.4152 22.9777 47.253 23.3682 46.3843 24.161C45.5157 24.9536 45.0209 26.0755 45.0209 27.2513L45.0229 46.7951L42.2752 59.3986L33.9032 74.6745C32.9487 76.416 33.5868 78.6019 35.3285 79.5564C37.0699 80.5111 39.256 79.8728 40.2105 78.131L48.8322 62.3999C48.9976 62.0982 49.1188 61.7739 49.1922 61.4377L51.3746 51.4259H54.6439L57.3503 60.9172L56.9208 76.3031C56.8644 78.3237 58.4857 79.9995 60.5174 79.9995C62.457 79.9995 64.0559 78.455 64.1104 76.5037L64.5552 60.5641C64.5653 60.1973 64.5194 59.8307 64.4186 59.4777L60.9603 47.3497V32.0984L49.6968 28.515C61.3455 29.5797 60.6298 29.5203 60.8174 29.5203Z" fill="#53C7F0"/>
<path d="M80.233 17.5596C79.3772 16.3402 77.6951 16.046 76.476 16.9017L75.8608 17.3336C75.6396 18.0016 75.2792 18.6352 74.774 19.1886L66.822 27.9008L69.6854 27.7544C70.1924 27.7285 70.6818 27.5599 71.0971 27.2682L79.5751 21.3165C80.7944 20.4608 81.0885 18.7788 80.233 17.5596Z" fill="#53C7F0"/>
<path d="M52.9924 20.6026C56.436 20.6026 59.2276 17.811 59.2276 14.3674C59.2276 10.9237 56.436 8.13208 52.9924 8.13208C49.5487 8.13208 46.7571 10.9237 46.7571 14.3674C46.7571 17.811 49.5487 20.6026 52.9924 20.6026Z" fill="#53C7F0"/>
<path d="M31.3725 5.06787C30.5949 5.06787 29.9648 5.69793 29.9648 6.47557C29.9648 7.25322 30.5949 7.88327 31.3725 7.88327C34.0708 7.88327 36.2659 10.0784 36.2659 12.7765C36.2659 13.5541 36.896 14.1842 37.6736 14.1842C38.4513 14.1842 39.0813 13.5541 39.0813 12.7765C39.0815 8.52595 35.6231 5.06787 31.3725 5.06787Z" fill="#53C7F0"/>
<path d="M31.3725 0C30.5949 0 29.9648 0.630058 29.9648 1.4077C29.9648 2.18534 30.5949 2.8154 31.3725 2.8154C36.8654 2.8154 41.3338 7.28403 41.3338 12.7765C41.3338 13.5542 41.9639 14.1842 42.7415 14.1842C43.5192 14.1842 44.1492 13.5542 44.1492 12.7765C44.1492 5.73161 38.4176 0 31.3725 0Z" fill="#53C7F0"/>
<path d="M73.3848 6.21216C72.6071 6.21216 71.9771 6.84222 71.9771 7.61986C71.9771 8.3975 72.6071 9.02756 73.3848 9.02756C76.083 9.02756 78.2781 11.2227 78.2781 13.9209C78.2781 14.6986 78.9082 15.3286 79.6858 15.3286C80.4635 15.3286 81.0935 14.6986 81.0935 13.9209C81.0937 9.67041 77.6353 6.21216 73.3848 6.21216Z" fill="#53C7F0"/>
<path d="M73.3848 1.14429C72.6071 1.14429 71.9771 1.77434 71.9771 2.55199C71.9771 3.32963 72.6071 3.95969 73.3848 3.95969C78.8776 3.95969 83.346 8.42832 83.346 13.921C83.346 14.6986 83.9761 15.3287 84.7537 15.3287C85.5314 15.3287 86.1614 14.6986 86.1614 13.921C86.1614 6.87606 80.4298 1.14429 73.3848 1.14429Z" fill="#53C7F0"/>
</svg>
