<svg width="20" height="20" viewBox="0 0 20 20" fill="none" xmlns="http://www.w3.org/2000/svg">
<circle cx="10" cy="10" r="10" fill="#FD275F"/>
<path d="M10 4C6.68548 4 4 6.68548 4 10C4 13.3145 6.68548 16 10 16C13.3145 16 16 13.3145 16 10C16 6.68548 13.3145 4 10 4ZM10 14.8387C7.32661 14.8387 5.16129 12.6734 5.16129 10C5.16129 7.32661 7.32661 5.16129 10 5.16129C12.6734 5.16129 14.8387 7.32661 14.8387 10C14.8387 12.6734 12.6734 14.8387 10 14.8387ZM11.4952 12.3129L9.44113 10.8202C9.36613 10.7645 9.32258 10.6774 9.32258 10.5855V6.6129C9.32258 6.45323 9.45323 6.32258 9.6129 6.32258H10.3871C10.5468 6.32258 10.6774 6.45323 10.6774 6.6129V10.0411L12.2935 11.2169C12.4242 11.3113 12.4508 11.4927 12.3565 11.6234L11.9016 12.25C11.8073 12.3782 11.6258 12.4073 11.4952 12.3129Z" fill="white"/>
</svg>
