<svg width="20" height="20" viewBox="0 0 20 20" fill="none" xmlns="http://www.w3.org/2000/svg">
<path d="M9.99139 20C15.5039 20 20 15.5211 20 9.99139C20 4.46167 15.5211 0 9.99139 0C4.46167 0 0 4.4789 0 9.99139C0 15.5039 4.4789 20 9.99139 20ZM9.99139 1.39535C14.7287 1.39535 18.5874 5.25409 18.5874 9.99139C18.5874 14.7287 14.7287 18.5874 9.99139 18.5874C5.25409 18.5874 1.39535 14.7287 1.39535 9.99139C1.39535 5.25409 5.25409 1.39535 9.99139 1.39535Z" fill="#FD275F"/>
<path d="M10.9396 14.9863C11.0774 15.1241 11.2497 15.193 11.4391 15.193C11.6114 15.193 11.8009 15.1241 11.9387 14.9863C12.2143 14.7107 12.2143 14.2628 11.9387 13.9871L7.89048 9.9389L11.9387 5.89067C12.2143 5.61505 12.2143 5.16716 11.9387 4.89153C11.6631 4.61591 11.2152 4.61591 10.9396 4.89153L6.39178 9.43934C6.25396 9.57715 6.18506 9.74941 6.18506 9.9389C6.18506 10.1284 6.25396 10.3007 6.39178 10.4385L10.9396 14.9863Z" fill="#FD275F"/>
</svg>
