<svg width="38" height="40" viewBox="0 0 38 40" fill="none" xmlns="http://www.w3.org/2000/svg">
<path d="M30.6947 25.6977C28.394 25.6977 26.3425 26.794 25.0302 28.4884L14.0418 22.3505C14.2993 21.6113 14.4405 20.814 14.4405 19.9917C14.4405 19.1611 14.2993 18.3721 14.0335 17.6246L25.0136 11.495C26.3176 13.1977 28.3774 14.3023 30.6864 14.3023C34.6232 14.3023 37.8375 11.0963 37.8375 7.15116C37.8375 3.20598 34.6315 0 30.6864 0C26.7412 0 23.5352 3.20598 23.5352 7.15116C23.5352 7.98173 23.6764 8.77907 23.9422 9.51827L12.9704 15.6478C11.6664 13.9369 9.60662 12.8405 7.29765 12.8405C3.36077 12.8405 0.146484 16.0465 0.146484 19.9917C0.146484 23.9369 3.36077 27.1429 7.30595 27.1429C9.61492 27.1429 11.6747 26.0382 12.987 24.3272L23.9671 30.4651C23.7013 31.2126 23.5518 32.0183 23.5518 32.8488C23.5518 36.7857 26.7578 40 30.703 40C34.6481 40 37.8541 36.794 37.8541 32.8488C37.8541 28.9037 34.6398 25.6977 30.6947 25.6977ZM30.6947 2.25083C33.4023 2.25083 35.6033 4.45183 35.6033 7.15947C35.6033 9.86711 33.4023 12.0681 30.6947 12.0681C27.987 12.0681 25.786 9.86711 25.786 7.15947C25.786 4.45183 27.9953 2.25083 30.6947 2.25083ZM7.30595 24.9003C4.59831 24.9003 2.39732 22.6993 2.39732 19.9917C2.39732 17.2841 4.59831 15.0831 7.30595 15.0831C10.0136 15.0831 12.2146 17.2841 12.2146 19.9917C12.2146 22.6993 10.0053 24.9003 7.30595 24.9003ZM30.6947 37.7492C27.987 37.7492 25.786 35.5482 25.786 32.8405C25.786 30.1329 27.987 27.9319 30.6947 27.9319C33.4023 27.9319 35.6033 30.1329 35.6033 32.8405C35.6033 35.5482 33.4023 37.7492 30.6947 37.7492Z" fill="#53C7F0"/>
</svg>
