<svg width="30" height="30" viewBox="0 0 30 30" fill="none" xmlns="http://www.w3.org/2000/svg">
<path d="M21.4324 12.0175C21.4324 11.8662 21.4297 11.7162 21.4228 11.5675C22.0706 11.0848 22.6324 10.4807 23.077 9.78935C22.4824 10.0567 21.8442 10.2353 21.1733 10.3102C21.8578 9.88886 22.3828 9.21523 22.631 8.4066C21.9901 8.79523 21.281 9.07341 20.5269 9.21797C19.9228 8.53067 19.061 8.09297 18.1078 8.0766C16.2778 8.0466 14.7942 9.59297 14.7942 11.5307C14.7942 11.8061 14.8228 12.0734 14.88 12.3311C12.1242 12.1539 9.68191 10.7193 8.04824 8.5566C7.76324 9.07479 7.59961 9.68023 7.59961 10.3293C7.59961 11.5567 8.18461 12.6475 9.07368 13.2912C8.52961 13.2667 8.01961 13.1017 7.57235 12.8316C7.57235 12.8466 7.57235 12.8616 7.57235 12.8766C7.57235 14.5921 8.7151 16.0293 10.2314 16.3648C9.95324 16.4439 9.66005 16.4848 9.35868 16.4835C9.14461 16.4821 8.93731 16.4589 8.73549 16.4152C9.15686 17.8212 10.3814 18.848 11.8309 18.882C10.6964 19.8229 9.26731 20.3847 7.71549 20.3807C7.44819 20.3807 7.18368 20.363 6.92456 20.3302C8.39186 21.3366 10.1332 21.9229 12.0054 21.9229C18.0996 21.9243 21.4324 16.6198 21.4324 12.0175Z" fill="#FD275F"/>
<path d="M30 15C30 6.71588 23.2841 0 15 0C6.71588 0 0 6.71588 0 15C0 23.2841 6.71588 30 15 30C23.2841 30 30 23.2841 30 15ZM1.36363 15C1.36363 7.46863 7.46863 1.36363 15 1.36363C22.5314 1.36363 28.6364 7.46863 28.6364 15C28.6364 22.5314 22.5314 28.6364 15 28.6364C7.46863 28.6364 1.36363 22.5314 1.36363 15Z" fill="#FD275F"/>
</svg>
