<svg width="16" height="27" viewBox="0 0 16 27" fill="none" xmlns="http://www.w3.org/2000/svg">
<path d="M9.41652 14.8819L7.8554 11.4768L6.29428 14.8819L2.80347 15.428L5.32943 18.0785L4.73316 21.821L7.8554 20.0542L10.9776 21.821L10.3814 18.0785L12.9073 15.428L9.41652 14.8819ZM9.09589 19.033L7.8554 18.331L6.61491 19.033L6.85183 17.546L5.84827 16.4928L7.23515 16.2759L7.8554 14.923L8.47583 16.2759L9.86271 16.4928L8.85915 17.546L9.09589 19.033Z" fill="#53C7F0"/>
<path d="M10.4175 2.62888L11.3217 0.681981L10.0544 0L8.83332 2.62888H6.87542L5.65429 0L4.38707 0.68218L5.29125 2.62888H0.0617676V26.0153H15.6468V2.62888H10.4175ZM1.47871 24.4902V10.2549H2.89546V8.7296H1.47871V4.15401H5.99963L6.70801 5.67934H5.72915V7.20447H9.97959V5.67934H8.29217L7.5838 4.15401H14.23V8.7296H12.8133V10.2549H14.23V24.4902H1.47871Z" fill="#53C7F0"/>
<path d="M8.5658 8.72974H11.3995V10.2551H8.5658V8.72974Z" fill="#53C7F0"/>
<path d="M4.31445 8.72974H7.14814V10.2551H4.31445V8.72974Z" fill="#53C7F0"/>
</svg>
